<?xml version="1.0" encoding="iso-8859-1"?>
<!-- Generator: Adobe Illustrator 18.1.1, SVG Export Plug-In . SVG Version: 6.00 Build 0)  -->
<svg version="1.1" id="Capa_1" xmlns="http://www.w3.org/2000/svg" xmlns:xlink="http://www.w3.org/1999/xlink" x="0px" y="0px"
	 viewBox="0 0 244.555 244.555" style="enable-background:new 0 0 244.555 244.555;" xml:space="preserve">
<g>
	<g>
		<path style="fill:#030104;" d="M207.187,2.821c-2.4-2-6.6-3.9-10.7-2.1c-7.8,5.3,27.4,27,9.6,99.6c-3.7,15-12.8,7.2-23.6,3.9
			c-24.6-7.7-50.9-9.4-76.4-12.1c-9-1-18.2-1.7-26.9-4.1c-9.2-2.5-9.6-3-7.3-11.4c6.4-8.1,3.8-19.2,3.5-23.8
			c4.8-10.6,6.6-19.8,2.8-24.5c-10.3-12.2-12,19.4-25.4,19.5c-6.1-0.6-10.1-0.1-11.6-3.4c-2.7-5.7-6.9-13.1-12.3-16.6
			c-8.3-5.5-10,9.7-6.5,24.1c-1.1,8.8-0.3,14.8,4.2,21.2c2.3,3.2,2.8,7.2,3.5,11c1.3,6.6,2.1,14.8,2.1,21.5c0,3.8,0.7,15.6,1.3,19.4
			c2.8,17.2,3.7,20.6,16.6,33.2c5.4,5.3,13.6,9.9,17,17c2.5,5.4,4.7,11.3,7,16.7c4.5,10.4,7.3,21,9.2,32.1c1.1,6-13.2,7.3-10.8,15.6
			c1.9,6.8,20.1,6.7,21.2-1.1c0.7-4.4,2.8-12.4,3.8-18.5c5.3-22.9-2.5-31.8,3.6-52.6c1.6-7.5,30.9,7,34.9,9.7
			c8.1,5.5,16.8,9.9,25,15.2c12.7,8.2,3.9,15.4-4.3,22.1c-4.4,3.6-4.4,3.8-10,2.5c-4.6-0.9-8.2,1.9-9.2,5.2c-1.5,4.7,5.3,7.9,10,7.3
			c14.1-1.5,33.6-16.2,39.7-28.9c4.1,4.8,2.4,9.3,0.1,15.4c-1,2.6-2.1,5.1-3,7.7c-2,5.9-3.9,4.3-8.7,5.4c-7.1,2.3-3.9,12.7,3.9,11.5
			c2.7-0.4,12.9-1.6,14-6.3c0.5-2.1,2.6-6.4,3.6-8.5c2.2-5.2,14.4-32.4,9-37.6c-2.8-2.6-5-5.3-7.1-8.5c-3.3-5.2-1.8-5.8,1.1-10.2
			c3-4.6,5.7-10,8.3-14.8c5.9-11.4,1.5-21.2,6.7-36.4C231.187,69.521,223.187,16.221,207.187,2.821z"/>
	</g>
</g>
<g>
</g>
<g>
</g>
<g>
</g>
<g>
</g>
<g>
</g>
<g>
</g>
<g>
</g>
<g>
</g>
<g>
</g>
<g>
</g>
<g>
</g>
<g>
</g>
<g>
</g>
<g>
</g>
<g>
</g>
</svg>
